# xmcd
#
# Track frame offsets:
#	150
#	10283
#	20348
#	32131
#	44919
#	53139
#	64539
#	74709
#	86379
#	98799
#	108677
#
# Disc length: 1624 seconds
#
# Revision: 1
# Processed by: cddbd v1.5.2PL0 Copyright (c) Steve Scherf et al.
# Submitted via: audiograbber 1.83.01
#
DISCID=9606560b
DTITLE=Bill Anderson - Always Remember
DYEAR=1971
DGENRE=Country
TTITLE0=Always Remember
TTITLE1=The Kind Of Needin" I Need
TTITLE2=When I Loved Her
TTITLE3=A Stranger In My Place
TTITLE4=One Too Many Mornings
TTITLE5=You're Still The Only One I'll Ever Love
TTITLE6=I'm Alright
TTITLE7=Come Sundown
TTITLE8=Feel Free To Go
TTITLE9=Help Me Make It Through The Night
TTITLE10=Lonesome Is The Mother Of Soul
EXTD=
EXTT0=
EXTT1=
EXTT2=
EXTT3=
EXTT4=
EXTT5=
EXTT6=
EXTT7=
EXTT8=
EXTT9=
EXTT10=
PLAYORDER=
